<svg version="1.1" viewBox="0 0 192 192" xmlns="http://www.w3.org/2000/svg">
 <g>
  <g transform="matrix(1.1895 0 0 1.1895 -329.57 343.31)" stroke="#000" stroke-width="7">
   <path d="m294.31-148.13c2.4601-2.8754 4.8175-5.842 7.3803-8.6263 28.237-30.676 61.877-56.941 94.3-82.998 4.9332-3.9632 23.8-18.926 29.765-24.342 1.9828-1.8003 3.6618-3.9092 5.4926-5.8638l-4.0607 1.6472c-3.4544 2.6081-6.9838 5.1197-10.363 7.8243-9.7729 7.8218-18.921 16.406-28.902 23.976-15.325 12.449-28.167 22.77-43.35 35.588-20.908 17.651-41.898 35.59-59.403 56.736l9.1419-3.9417z" fill="#0055d4"/>
   <path d="m299.53-262.68c1.3819.83608 2.9506 1.4218 4.1458 2.5082 3.401 3.0914 6.3682 6.6287 9.5524 9.943 4.2714 4.4459 8.5947 8.8426 12.814 13.338 5.0176 5.3451 9.9029 10.813 14.896 16.181 13.651 14.676 17.032 18.1 30.76 32.427.47332.48937 22.228 23.05 24.189 24.842 2.9422 2.6891 6.1573 5.0704 9.3747 7.4234 2.2315 1.6319 4.295 3.7643 6.9547 4.5185 2.7046.76692 5.6215-.10355 8.4323-.15533l.98604-.65431c-1.9467-7.7283.40281-2.3909-7.521-9.2196-2.9155-2.5125-5.5775-5.305-8.356-7.9683-14.071-13.487-9.8503-9.4368-24.93-24.362-15.622-15.896-30.974-32.031-46.321-48.192-7.4832-7.8798-14.705-16.28-23.327-23.014-1.3884-1.0842-3.1407-1.5966-4.7111-2.3948l-6.9391 4.7792z"/>
  </g>
 </g>
</svg>
