<svg version="1.1" viewBox="0 0 192 192" xmlns="http://www.w3.org/2000/svg">
 <g>
  <path d="m100.11 31.706c-6.1724-2.6369-12.77-4.3097-19.515-4.3665-1.9147-.0161-3.8248.1888-5.7372.28319-4.7404.69333-6.5137.71493-11.079 2.3508-9.7923 3.5087-19.646 9.7281-27.158 16.95-2.2069 2.1218-4.1634 4.4896-6.245 6.7344-3.2551 4.0779-8.3554 10.078-10.839 14.735-4.7002 8.8142-8.176 20.81-9.3324 30.709-.39872 3.4131-.36776 6.8627-.55164 10.294.25007 3.2039.17558 6.4499.75021 9.6118 1.6178 8.9017 6.3223 19.086 12.494 25.764 5.7866 6.2615 10.28 8.3232 17.459 12.719 14.124 6.3168 29.314 10.981 44.85 11.875 8.6059.49546 11.502-.11383 19.88-.95539 10.162-1.7135 20.204-4.3994 29.462-9.0025 5.9419-2.9544 18.673-11.061 21.406-12.728 9.6281-7.8813 17.447-17.746 22.208-29.295.92536-2.2445 1.608-4.5815 2.412-6.8723 3.493-13.464 3.7459-27.877-2.2046-40.769-1.4258-3.089-3.4117-5.8873-5.1175-8.831-6.9973-7.5376-10.411-12.188-19.505-17.717-15.657-9.5202-34.104-13.796-52.3-14.005-6.5139-.0749-12.997.90774-19.495 1.3616l-4.0513 2.9452c9.8698.79373 24.375 1.6692 33.865 3.74 15.747 3.4361 30.298 10.171 42.173 21.162 2.9609 2.7405 5.4128 5.9843 8.1192 8.9764 1.6523 2.877 3.5783 5.6132 4.9569 8.6309 5.7867 12.667 5.3447 26.858 1.7782 40.01-.81073 2.2435-1.5027 4.5335-2.4322 6.7304-4.818 11.387-12.707 21.046-22.407 28.636 1.9979-1.0038 3.7881-3.3783 5.9937-3.0115 2.0559.34191-3.5783 2.1424-5.4263 3.1058-9.2561 4.8254-19.341 7.6964-29.57 9.5988-8.5364 1.026-11.155 1.6715-19.946 1.3221-15.506-.61634-30.685-4.9533-44.766-11.298-6.9577-4.1479-11.683-6.311-17.342-12.242-6.3146-6.6175-10.773-16.131-12.472-25.061-.58832-3.0916-.54818-6.2702-.82228-9.4052.17171-3.374.12683-6.7661.51512-10.122 1.17-10.112 4.5236-21.259 9.387-30.229 2.6263-4.8439 7.3316-10.27 10.755-14.512 2.1068-2.2078 4.0905-4.54 6.3205-6.6234 1.9635-1.8344 4.5275-3.0343 6.2364-5.108.70728-.85833-4.0673 1.7945-3.0815 1.2795 5.2236-2.7294 10.684-4.5886 16.574-5.1622 1.9038-.14138 3.8026-.39675 5.7115-.42413 7.0537-.10117 14.209 1.1267 20.986 2.9794l7.1025-4.7635z" stroke="#000" stroke-width="6.5933"/>
 </g>
</svg>
