<svg version="1.1" viewBox="0 0 512 512" xmlns="http://www.w3.org/2000/svg">
 <g>
  <rect x="3.5025" y="3.5025" width="505" height="505" ry="42.159" fill="#fff" stroke="#fff" stroke-linecap="round" stroke-linejoin="round" stroke-width="7.005" style="paint-order:markers stroke fill"/>
 </g>
 <g>
  <g transform="translate(.0019761 -.46617)">
   <g>
    <path d="m288.56 138.14c-1.6998 27.966-4.0893 72.512-5.9152 135.38-.40081 13.802-.81096 29.698-1.2006 48.004-.2195 5.7739-.92769 16.52-.87786 24.434v1e-5c.0526 8.3578.79519 17.155 3.4937 25.862.58648 1.8922 1.248 3.8304 2.5809 5.2959.6665.73273 1.4855 1.3328 2.4038 1.7041.91829.37127 1.9318.50898 2.914.38068.98217-.12831 1.9263-.52178 2.7184-1.1165.7921-.59471 1.4294-1.3851 1.8853-2.2644.91179-1.7587 1.0532-3.8018 1.1338-5.7812.0906-2.2236-.0716-4.3703-.19445-5.8874-.18332-2.2632-.29267-3.7749-.30931-4.6108a6.9774 6.9774 90 00-13.952.27772c.0255 1.2814.18354 3.3787.35211 5.4598.1223 1.5098.21305 2.9025.16047 4.1923l13.636-1.7814c-2.1342-6.8859-2.8203-14.168-2.8684-21.818-.0477-7.5708.62289-17.308.87038-23.877.001-.0381.003-.0762.003-.11426.38922-18.294.7989-34.173 1.1991-47.954 1.8209-62.701 4.2029-107.1 5.8953-134.94a6.9774 6.9774 90 00-13.929-.8466z"/>
    <path d="m123.09 215.95c11.697-.685 39.61-2.8021 69.854-4.0798 9.2586-.39118 21.659-.80109 35.003-.77223.0611.00013.12217-.00055.18323-.002 43.556-1.0734 101.83-3.2551 153.59-2.3418.62697.0677 1.3923.17286 2.2496.30997.99017.15834 2.048.35039 3.0858.55722 1.0757.21436 2.1042.43943 3.0102.65582.96332.23009 1.7289.43623 2.269.6013.28396.0868.45413.14659.53335.17669.0387.0147.0258.0111-.0254-.0121-.0425-.0192-.19076-.0872-.39755-.20952-.1653-.0978-.64424-.3894-1.1708-.91293-.28004-.2784-.6902-.73685-1.0645-1.389-.1944-.33871-.39363-.75489-.55473-1.2461-.16349-.49849-.28719-1.0733-.32403-1.7102v-3e-5c-.0374-.64665.0177-1.3103.17574-1.9679l1e-5-2e-5c.15868-.66021.40637-1.2533.70193-1.7706.58668-1.0268 1.3185-1.6848 1.8397-2.0687l1e-5-1e-5c.53253-.39232 1.016-.62482 1.3247-.75509l1e-5-1e-5c.32735-.13815.60176-.22117.78168-.26947.35462-.0952.60807-.12581.67131-.13321.0888-.0104.11764-.01.0638-.007-.12304.005-.38635.008-.82289-.007-1.0821-.0365-2.6026-.15432-4.2689-.31316a6.8371 6.8371 90 00-1.2976 13.612c1.7363.16552 3.5924.31612 5.106.36712.61113.0206 1.252.0282 1.8543.003.28416-.0119.61099-.033.95484-.0733.30865-.0361.76732-.10284 1.285-.24182.25929-.0696.60301-.17574.98942-.33882h1e-5c.36678-.1548.89839-.41356 1.469-.8339l1e-5-1e-5c.55858-.41152 1.3181-1.0988 1.9225-2.1566.30431-.53258.55832-1.1414.72088-1.8178l1e-5-3e-5c.16189-.67359.21844-1.3537.18007-2.0172l-1e-5-3e-5c-.0378-.65363-.16486-1.2455-.33409-1.7616-.1668-.50861-.3741-.94259-.57893-1.2995-.39497-.68816-.83508-1.1841-1.1544-1.5016-.60367-.60014-1.1955-.97411-1.5094-1.1598-.35204-.20819-.67957-.36736-.93489-.48267-.25961-.11723-.51281-.21968-.74575-.30818-.44907-.17063-.92397-.32768-1.3935-.47118-.89846-.27459-1.9554-.55354-3.0889-.82429-1.088-.25986-2.2854-.52131-3.5145-.76625-1.1852-.2362-2.4154-.46008-3.599-.64935-1.145-.1831-2.2967-.34191-3.3362-.44314-.17967-.0175-.35998-.0279-.54048-.0311-52.177-.93275-111.03 1.2673-154.37 2.3364-13.592-.0274-26.179.38998-35.518.78457-30.624 1.2939-58.45 3.4102-70.076 4.091a6.8372 6.8372 90 00.79938 13.651z"/>
    <path d="m122.72 321.61c17.927-.0758 16.63.0349 45.006.0955 19.392.0414 43.614-.0401 67.539-1.5919 7.4938-.48606 16.013-1.1794 25.11-2.2171.11761-.0134.23469-.0311.35143-.0507 20.698-3.4763 49.826-8.3376 77.77-8.4535.0278-.00012.0557-.00099.0835-.001 8.9105-.12054 18.251-1.0966 26.375-1.7016 9.3214-.69424 17.02-.91063 24.476-.0501.12127.014.24321.0207.36496.0296 1.1655.0848 2.3124-.0562 3.3885-.39991 1.1575-.36975 2.1346-.94172 2.9241-1.5836 1.7792-1.4465 2.6304-3.239 3.014-4.5373.0235-.0797.0459-.15935.0672-.23899.50766-1.9043.38511-3.8687-.27109-5.6118-.41673-1.107-1.023-2.0608-1.7303-2.8464-1.0066-1.1179-2.0892-1.7567-2.8433-2.118a7.5911 7.5911 90 00-6.5594 13.692c-.49268-.23603-1.2374-.66865-1.9377-1.4438-.49333-.54597-.9068-1.1997-1.1858-1.9392-.43624-1.1564-.49772-2.3537-.18224-3.5085.0131-.0478.0268-.0957.0413-.14353.22907-.75719.75761-1.8869 1.9328-2.8278.52803-.42276 1.1894-.80507 1.9737-1.0493.73146-.22779 1.4827-.30758 2.2011-.24774.12163.0101.24349.0177.36496.0296-8.8695-.87034-17.665-.40829-27.24.48366h-1e-5c-8.7122.81154-17.146 1.8713-25.484 2.14l.0835-.001c-29.129.4742-59.235 5.8745-79.679 9.4831-8.7607 1.038-16.986 1.7412-24.264 2.236-23.458 1.5949-47.258 1.6796-66.651 1.6198-19.662-.0607-35.719-.19125-45.094-.15159a6.4531 6.4531 90 00.0546 12.906z"/>
    <path d="m194.9 123.53c.27193 11.151.47839 24.235.23114 52.398-.10492 11.952-.6871 48.313.24088 76.099.006.18879.0241.37698.0488.56426 2.1336 16.154 2.3359 32.153 2.2951 51.241v2e-5c-.0358 16.728-.23264 34.785 1.5266 52.567.19202 3.2709.30979 7.2399.37222 11.486.0638 4.3422.0689 8.9098.0411 13.196-.029 4.4761-.0935 8.6598-.16538 12.077-.0778 3.6975-.1642 6.5317-.23457 8.2476l13.341.13994c.097-2.7703.16849-5.0896.19533-6.6186.0487-2.7763 0-4.8103 0-5.7724a6.8667 6.8667 90 00-13.733 0c0 .96206-.0487 2.9961 0 5.7724.0268 1.529.0983 3.8482.19533 6.6186.0171.48828.037.97864.12941 1.4584.0924.47976.25869.94895.52472 1.3587.26603.4098.6319.75668 1.0637.98531s.92622.33668 1.4141.31112c.4879-.0256.96606-.18324 1.383-.43792.41695-.25468.7724-.60368 1.0594-.9991.57392-.79085.86504-1.7461 1.1457-2.6821.2807-.93597.57896-1.8902 1.1635-2.6732.29225-.39154.6537-.73476 1.0756-.98122.42187-.24645.90378-.39337 1.3922-.40665.4884-.0133.97995.10852 1.4047.34994.42477.24142.77953.59997 1.0317 1.0184s.40201.8933.47718 1.3761c.0752.48276.0771.97355.0763 1.4621.002-1.4828.0146-4.9226.0131-8.3934-.001-3.4437-.0153-7.7187-.0671-12.244-.0497-4.3435-.13536-9.008-.28314-13.467-.14461-4.3636-.34993-8.5714-.64456-12.124-.006-.0665-.0103-.13312-.0175-.19947-1.8572-17.055-1.8366-34.46-1.9556-51.455v-2e-5c-.1332-19.016-.47165-35.617-2.8279-52.501-1.1076-27.773-.73494-62.855-.66785-75.296.15382-28.525.0482-41.167-.23413-52.744a5.5071 5.5071 90 00-11.011.26852z"/>
    <path d="m270.88 214.21c-3.9975 3.0811-7.8608 7.0755-12.455 13.487-3.0502 4.2568-6.0119 9.0355-9.199 13.348-.062.0838-.12211.16896-.18043.25535-9.5743 14.183-19.025 28.722-29.927 41.816-.11312.13587-.22129.27579-.32429.41948-.32702.45623-.74782 1.0462-1.1743 1.6494-.45052.63717-.89848 1.2764-1.2677 1.814-.1543.22467-.29952.43838-.4294.63295-.035.0525-.07.1051-.1044.15732-.0789.11968-.16421.25088-.24698.38249-.0701.11149-.1879.30138-.30957.52073-.0559.10078-.16793.3065-.28778.56935-.0596.1306-.15741.35427-.25696.63876h-1e-5c-.051.14574-.11622.34648-.17903.58878-.0599.23096-.14043.58662-.18988 1.0277-.0456.40675-.0947 1.1369.0551 2.0311.078.46559.22167 1.0471.49413 1.6815.27611.64293.69076 1.3534 1.3036 2.0296.62193.68627 1.3719 1.2523 2.2128 1.6632.82853.40486 1.639.60795 2.3516.69276.70107.0834 1.3138.0538 1.7952-.008.48191-.0615.88946-.16229 1.2051-.25826.61027-.18557 1.0752-.41442 1.3515-.56345.29367-.15842.5265-.3099.68568-.41963h1e-5c.30939-.21328.54013-.40746.66425-.51536.25142-.21857.4391-.41122.52546-.50118.104-.10833.1931-.2067.25958-.2815.13141-.14785.25908-.29913.37193-.43532l-12.376-7.5514c.0676-.15812.0881-.17004-.0133-.002-.0864.14292-.21352.3376-.38099.57641-.33492.47758-.71456.96581-.99216 1.3072-.066.0812-.12078.14732-.16176.19616-.0402.048-.0677.0793-.0531.0627.002-.002.031-.0353.0779-.0859.0228-.0246.0701-.0752.13357-.13965.0324-.0329.0812-.0818.14216-.14028.0549-.0526.15731-.14936.29197-.26508.069-.0593.16968-.1436.2951-.24045.11542-.0891.31796-.24035.58459-.40753.13708-.086.32711-.19883.56082-.3181l6e-5-3e-5c.22402-.11432.56815-.27572 1.0061-.42219.41029-.1372 1.1266-.33773 2.0432-.37274l.00025-1e-5c.47668-.0182 1.0666.006 1.7273.13924.66974.13508 1.4139.38307 2.1624.80709.75747.42913 1.433.99024 1.9944 1.6575.55491.65955.93578 1.3478 1.1916 1.9844.4907 1.2211.54069 2.2932.52616 2.9049-.0275 1.1597-.33073 2.0248-.41967 2.2754-.13034.36722-.26334.64767-.33693.79641-.082.16573-.15569.29876-.20614.38696l-1e-5 1e-5c-.0988.1728-.18401.30498-.22823.37245-.0501.0764-.0923.13759-.12009.17734-.0546.078-.0978.13625-.11759.16273-.0489.0654-.0614.0805-.0638.0836-.002.003.008-.0103.0269-.0334.0401-.0495.10703-.13118.2066-.25076.17628-.21171.43099-.51365.7785-.91993.6603-.6712 1.4692-1.4656 1.9132-1.9371a7.3251 7.3251 90 00-10.666-10.043c-.26766.28427-.88299.87746-1.8926 1.912-.10949.11218-.21534.22785-.3174.34682-.45961.53578-.81269.95328-1.0735 1.2666-.12799.1537-.24009.2899-.3351.40726-.0473.0584-.0954.11843-.14231.17787-.0425.0539-.10379.13233-.17057.22172-.0326.0436-.0862.11613-.1488.20561v1e-5c-.0318.0455-.0775.11171-.13037.19244-.0471.0718-.13451.20765-.23505.38342l-1e-5 1e-5c-.0513.0897-.12571.22404-.20827.39092-.0742.14988-.20758.43132-.33821.79935-.0892.25138-.39257 1.1171-.42012 2.2773-.0145.61194.0355 1.6843.52624 2.9055.25585.63668.63677 1.325 1.1917 1.9846.56142.66729 1.237 1.2284 1.9946 1.6576.74853.42406 1.4928.67208 2.1626.80717.66084.13328 1.2508.15745 1.7276.13926l.00024-1e-5c.91682-.035 1.6334-.23559 2.0439-.37289.43825-.14656.78269-.30808 1.007-.42258l6e-5-3e-5c.23405-.11944.42444-.23253.56192-.31873.26744-.16768.47092-.31956.58741-.40953.12649-.0977.22842-.18301.29871-.24341.13733-.11801.24299-.21769.30155-.27387.0647-.062.11769-.11512.15483-.15284.0729-.074.13168-.13671.16794-.1758.0737-.0795.13736-.15106.18099-.20066.0913-.10377.18604-.21487.27658-.32277v-1e-5c.0936-.1115.19647-.23607.30591-.37067.42726-.52544 1.0308-1.2978 1.6201-2.1382.29869-.42593.61954-.90595.92311-1.408.29409-.48641.64771-1.1173.94885-1.8222.84094-1.9685 1.6517-4.0305 1.5616-6.1692-.0451-1.0694-.31278-2.1343-.82506-3.0741-.51227-.93974-1.269-1.7472-2.1826-2.3046-.91367-.55746-1.9778-.86101-3.0478-.88667-1.07-.0257-2.1395.22344-3.111.67254-1.943.89821-3.4058 2.5624-4.7716 4.2107-.058.0699-.0668.0788-.0413.0501.0131-.0147.0565-.0634.12212-.1317.0478-.0497.20417-.21201.43124-.40941.11188-.0973.33211-.28312.63267-.49031l1e-5-1e-5c.15476-.10668.38358-.25566.67367-.41214.27267-.1471.73442-.37456 1.3419-.55929.31422-.0956.72049-.19601 1.2012-.25739.48018-.0613 1.0919-.091 1.792-.008.71156.0847 1.5212.28754 2.3489.69201.8402.41057 1.5894.97605 2.2108 1.6617.61225.6756 1.0264 1.3852 1.3021 2.0273.27206.63351.41543 1.214.49324 1.6784.14944.89182.10032 1.6191.0551 2.0225-.0491.43766-.12887.78943-.1876 1.016-.0617.2379-.12538.43374-.17449.57408l-1e-5 1e-5c-.0958.27366-.18835.48455-.2412.60047-.10639.2333-.19919.40183-.23059.45844-.0912.16449-.10432.17897-.0999.17194.005-.007.0339-.0532.0753-.11599.0176-.0267.0373-.0564.0592-.0891.0831-.12451.18998-.28209.32072-.47245.31518-.45891.72041-1.0376 1.1534-1.65.34235-.48417.68231-.9615.96729-1.3599 11.291-13.561 21.231-28.846 30.553-42.658 3.6703-4.9792 6.56-9.6659 9.2316-13.394 3.9519-5.5152 6.859-8.3886 9.4894-10.416a7.3253 7.3253 90 00-8.9435-11.604z"/>
    <path d="m221.81 235.2c.3512-.0523.72608-.0526 1.2303.11701.42527.14307 1.0647.45082 1.9581 1.1107.81847.60445 1.6824 1.3698 2.816 2.4447.89242.84619 2.2584 2.1873 3.4775 3.2512.0442.0386.0889.0767.13414.11412 8.9416 7.4134 16.296 16.536 21.404 26.784.0233.0468.0472.0934.0716.13968.70435 1.3366 1.3983 2.7136 2.0818 4.073.97271 1.9345 2.1901 4.3716 3.4614 6.6818 1.9147 3.4795 4.3487 7.4298 7.6479 11.06.29711.35374.56918.70243.78434.99204.11437.15394.20228.27724.26057.36142.029.0419.0454.0665.0506.0744.004.006-.005-.007-.0493-.0795-.0191-.0316-.0562-.0941-.10288-.17885-.037-.0672-.13255-.24276-.23947-.48249-.0532-.11935-.14551-.33496-.23885-.61421-.048-.14355-.11014-.34511-.16844-.59029-.0554-.23312-.1304-.60083-.16639-1.0587v-3e-5c-.0331-.42135-.0572-1.1965.16318-2.1329.11538-.49036.3133-1.0917.66049-1.7295.35389-.65011.85507-1.3221 1.5414-1.9192.69218-.60221 1.4706-1.039 2.273-1.3186.78699-.27429 1.5207-.37169 2.1323-.3852.60565-.0134 1.1246.0544 1.5255.13528.40337.0813.74277.18715 1.0056.28299.50991.18595.8979.39571 1.1317.53285.24827.14564.44506.28202.58032.38089.2636.19268.45787.36388.56019.45682.2079.18884.35289.34488.40386.40017.14478.15704.16821.19154.17546.20047.0147.0181-.082-.10378-.22438-.29528-.1303-.17526-.30009-.40797-.51313-.70557-1.0007-1.5632-1.7354-3.4671-2.1457-4.5678a6.9481 6.9481 90 00-13.021 4.8535c.39748 1.0663 1.6199 4.3927 3.6081 7.4303.0505.0772.10263.15344.15622.22859.29262.41038.54688.76038.76349 1.0517.20366.27394.40462.53739.58937.76488.0831.10228.22347.27252.39451.45804.0776.0842.24452.26242.46969.46695v1e-5c.11093.10076.31267.27817.58259.47547.13842.10118.33808.23947.58894.38663.23637.13866.62667.34955 1.1386.53624.26383.0962.60417.20229 1.0084.28381.40178.081.92155.1489 1.5279.13551.61231-.0135 1.3467-.11103 2.1343-.38553.80292-.27984 1.5819-.71693 2.2746-1.3195.68676-.59749 1.1883-1.27 1.5425-1.9207.34751-.63839.54568-1.2404.66124-1.7316.22071-.93801.19676-1.715.16346-2.1387v-4e-5c-.0362-.46013-.1116-.8305-.16775-1.0666-.059-.24821-.12216-.45317-.1714-.60047-.0958-.28675-.19169-.51131-.24954-.64102-.11615-.26042-.22508-.46228-.27956-.56119h-1e-5c-.0641-.11638-.12268-.21583-.16712-.28956-.0883-.14656-.17474-.28091-.24645-.38983-.0751-.114-.15328-.22931-.23193-.3429-.15695-.22669-.33616-.47614-.53081-.73815-.39103-.52634-.87786-1.1484-1.4217-1.7884-.0552-.0649-.11152-.12884-.16904-.1917-2.2756-2.4868-4.1203-5.3926-5.8217-8.4844-1.1205-2.0361-2.2117-4.2178-3.2208-6.2248-.66775-1.328-1.405-2.792-2.1669-4.2398-5.9618-11.961-14.537-22.573-24.864-31.151-.91102-.79982-1.8234-1.7036-2.9923-2.812-1.2433-1.1789-2.6022-2.4166-4.122-3.539-1.7726-1.3091-3.6754-2.3944-5.7826-3.1033-2.8903-.97234-5.523-1.0163-7.7092-.69054a6.9479 6.9479 90 002.0482 13.744z"/>
    <path d="m163.24 125.32c-1.8089-1.6482-5.8302-4.7719-11.628-5.9072-2.0426-.39995-4.3849-.55942-6.8657-.20076h-1e-5c-2.2206.32103-4.561 1.0604-6.8278 2.4152-.68284.40068-1.3525.82545-2.0095 1.2737-3.1998 2.1828-6.2255 5.0009-9.2151 8.6545-2.8782 3.5175-5.3043 7.2749-7.8531 11.387-.10177.16416-.19277.33469-.27732.50834-2.4958 5.1258-4.4443 11.258-4.9739 17.814-.48766 6.0372.22447 12.605 3.0584 18.838.96543 2.2446 2.3332 4.0874 3.9211 5.603 1.5477 1.4774 3.256 2.5986 4.9009 3.4921 1.6166.87816 3.2696 1.5871 4.7367 2.1892 1.5528.63731 2.7646 1.1045 3.9642 1.644.0532.0239.10735.0457.16134.0677 2.4172.98861 4.8839 1.5129 7.3225 1.664 2.4394.15115 4.8221-.0724 7.0844-.55227 4.3918-.93152 8.433-2.8482 11.828-5.0764 2.0197-.98777 4.6315-2.2092 6.9962-3.7994 1.3404-.90143 2.6731-1.9631 3.8917-3.2512 1.2042-1.2728 2.2572-2.7253 3.0917-4.3877 3.2113-5.4325 5.7952-10.986 7.4659-16.615.7169-2.4153 1.2511-4.7959 1.6013-7.1408.58866-3.9415.6953-8.0361.11026-12.198-.31783-2.4924-1.0973-4.8104-2.2112-6.8864-1.1359-2.117-2.61-3.9659-4.2853-5.5129-3.4518-3.1873-7.7612-5.1172-12.144-5.6816-5.5355-1.0831-10.707-.64251-14.961.27795-5.9772 1.2932-10.809 3.68-13.556 5.1954a6.4382 6.4382 90 006.2205 11.274c2.1915-1.2092 5.7874-2.9461 10.051-3.8573 3.0617-.65438 6.468-.88324 9.9225-.17261.18278.0376.3672.0666.55253.0884 1.8125.2129 3.6725 1.0226 5.1441 2.3792.68635.63271 1.2526 1.3537 1.6719 2.1296.41019.75913.68188 1.574.79387 2.432.005.0348.009.0695.014.10422.40467 2.7976.35931 5.6528-.0608 8.5485-.24883 1.7152-.63882 3.5114-1.1866 5.3933-1.2992 4.4634-3.4024 9.1233-6.2353 13.969-.0991.16956-.19461.34141-.27535.52046-.23053.51123-.54556.99504-.98539 1.4813-.43157.4771-.995.96942-1.7429 1.4943-1.5766 1.1064-3.2917 1.9293-5.81 3.233-.24032.12442-.47606.25805-.69839.41234-2.4397 1.6929-5.148 2.9978-7.825 3.6078-1.3014.29654-2.5661.4218-3.7694.36665-1.1829-.0542-2.3303-.28276-3.4407-.71326-1.4098-.59739-2.9821-1.1812-4.2019-1.6574-1.377-.53754-2.5439-1.0256-3.5766-1.562-1.032-.53601-1.799-1.0551-2.374-1.5792-.55952-.51003-.96259-1.0469-1.2487-1.6764-.0202-.0444-.0391-.0895-.0599-.13363-1.899-4.0377-2.5143-8.5412-2.1922-13.056.34223-4.7968 1.7289-9.4528 3.6078-13.463 2.3872-3.9376 4.4131-7.0943 6.7019-9.9437 2.3791-2.9619 4.6033-5.012 6.7571-6.4984.44916-.30999.90208-.60004 1.3593-.87079.0181-.0107.0363-.0214.0543-.0324.85472-.52155 1.7453-.81382 2.6387-.94502 1.0101-.14835 2.0503-.094 3.0608.10553 2.9798.58841 5.1649 2.274 6.1705 3.1903a5.6696 5.6696 90 007.6371-8.3817z"/>
    <path d="m175.16 221.76c-3.0906 3.3682-7.2194 7.7421-13.633 14.055-6.0519 5.9568-13.339 12.806-20.545 19.759-2.5192 2.3768-4.3531 4.088-6.8742 6.4666-3.0013 2.8344-6.6637 6.3249-10.229 9.9806-5.1118 5.2411-10.631 11.421-15.475 18.568-.27644.32747-.55059.67355-.81155 1.0103h-1e-5c-.28293.36506-.57343.74915-.86057 1.1274-.28665.37756-.5684.74718-.82418 1.0706v1e-5c-.25635.32419-.48843.60322-.64011.75965-.0752.0776-.13276.12674-.14245.11576-.007-.008.0221-.0831.20938-.28566.0861-.0932.25593-.26603.51368-.47036.21118-.16741.74883-.57222 1.564-.88884h1e-5c.43093-.16737 1.081-.36581 1.8973-.42122h2e-5c.84784-.0575 1.9107.0393 3.021.51409l3e-5 1e-5c1.1348.48527 2.0148 1.2362 2.6389 2.0496.59505.77552.90594 1.5358 1.0733 2.08v2e-5c.16905.54984.23541 1.0221.26464 1.3441.0302.33235.03.61111.0237.80823v1e-5c-.012.37844-.0549.6778-.0739.80571-.045.30258-.0666.37867-.0376.34442.0351-.0416.24994-.52513.5181-1.1077.0423-.0918.0887-.18192.14509-.2658.0564-.0839.12038-.1627.17225-.24945.0519-.0867.0893-.18401.0936-.285.004-.10098-.027-.19974-.0633-.29407.0883.2293.11802.31789.20789.3019.0169-.003.0339-.0106.0498-.0212.11984-.0802.26916-.36085.36752-.47566a7.14 7.14 90 00-10.844-9.2911c-.18792.21932-.91509.97327-1.5571 2.0785-.0908.1564-.18851.33465-.28925.53284-.39882.7846-.9237 2.0319-1.1925 3.5981-.16759.47671-.31287.92709-.43158 1.3517h-1e-5c-.0849.3036-.19964.74731-.28187 1.2393-.0406.24272-.0958.62816-.11158 1.0869v1e-5c-.008.23538-.008.54775.0245.91008.0316.35175.10244.84955.27803 1.4211l1e-5 1e-5c.17385.56592.49327 1.3438 1.0988 2.1331.63458.82716 1.527 1.588 2.6762 2.0794l3e-5 1e-5c1.1246.48095 2.2037.58028 3.0696.52158h2e-5c.83428-.0566 1.5043-.25973 1.9568-.43533h1e-5c.85753-.33273 1.447-.76833 1.7142-.97868.31266-.24613.54888-.47726.70261-.63705.30319-.31517.53688-.61683.69026-.82411.16485-.22278.31911-.44923.45386-.65368.26331-.39952.54424-.85588.79345-1.2684.25289-.4186.51857-.86771.75499-1.27h1e-5c.22489-.38265.48344-.82543.65349-1.1183.1748-.30109.34755-.59911.37406-.67087.0126-.034.0262-.0677.0452-.0986.0189-.0309.0424-.0587.0671-.0852s.0503-.0522.0735-.08.0435-.0579.0629-.0885c4.1399-6.5324 9.0363-12.349 13.851-17.503 3.3162-3.5498 6.7381-6.9328 9.683-9.7851 2.2383-2.1679 4.4691-4.2892 6.7948-6.5105.0152-.0145.0304-.0289.0454-.0436 6.7325-6.5735 13.887-13.258 20.619-19.832 6.5503-6.3929 10.91-10.934 14.117-14.429a5.7287 5.7287 90 00-8.442-7.7462z"/>
    <path d="m110.22 238.82c.94388.52713 3.225 1.7456 4.8 2.8753 1.2628.9058 2.2335 1.8317 2.9072 2.8904.0992.15595.21045.30382.32553.44849 1.2366 1.5546 2.4559 3.0898 3.6974 4.639 3.2653 4.0748 7.4934 9.277 12.07 14.171 5.3702 5.7423 11.769 11.683 19.481 16.522.0664.0417.13514.0796.20246.11982 2.2609 1.3508 4.8169 2.5923 6.6679 3.5571 2.2138 1.1539 3.7602 2.0722 5.0693 3.1011l-.76426-.6553c-.13029-.12028-.31552-.30897-.51898-.57329-.20807-.27032-.47444-.67079-.70753-1.2039-.24646-.56367-.47075-1.312-.51438-2.2085-.0472-.96953.12626-1.946.51247-2.8513v-1e-5c.39829-.93363.94898-1.6227 1.4361-2.0977.51126-.49857 1.0067-.81568 1.3484-1.0055h1e-5c.0908-.0504.17697-.0953.25737-.13514.56465-.27961 1.0298-.40026 1.2365-.44842.27745-.0646.47081-.0847.53783-.0907.0937-.008.12734-.006.1332-.005.009.002-.01.006-.0301.008-.0286.004-.0626.006-.0976.004a6.756 6.756 90 00-.69844 13.494c.12635.007.24718.0177.37352.0243.14417.008.35865.016.61658.0151.2174-.00076.51249-.008.85226-.0376.29739-.0257.72968-.0765 1.2261-.18952.39097-.089 1.0266-.26185 1.7352-.61125.0992-.0489.20397-.10331.31294-.16364h1e-5c.41404-.22922.97608-.59197 1.543-1.1441.53889-.52484 1.132-1.2707 1.5585-2.2694.41281-.96665.60021-2.012.54978-3.0593-.0467-.97041-.28981-1.801-.57509-2.4561-.27026-.62062-.5926-1.118-.87913-1.4944-.27892-.36639-.56201-.66809-.81439-.91008-.12129-.1163-.24118-.23415-.36687-.34567s-.26009-.21276-.39739-.30963c-2.352-1.6593-4.8151-2.8839-7.294-4.0081-2.361-1.0708-4.2252-1.837-6.0902-2.8138-6.4691-3.9443-12.07-8.9363-17.058-14.133-4.296-4.4751-8.3122-9.3004-11.585-13.326-1.1815-1.4534-2.353-2.9108-3.5492-4.4006-1.7309-2.5096-3.8242-4.3372-5.7171-5.7141-2.2964-1.6704-5.3251-3.3286-5.9479-3.6764a5.9946 5.9946 90 00-5.8458 10.467z"/>
    <path d="m372.27 222.3c-2.1133-1.1924-5.1234-2.4836-9.0691-3.0298h-1e-5c-2.8022-.38792-5.8393-.36778-9.0973.13744-5.5604.86225-11.134 3.0443-16.214 5.9355-.0195.0111-.039.0225-.0583.0339-2.5714 1.512-5.0885 3.1929-7.5031 5.0347-3.3094 2.5244-6.6301 5.506-9.6734 8.9672-4.663 5.3035-8.8433 11.932-11.056 19.834-.0134.0479-.0247.0963-.0371.14448-.44811 1.7387-.79969 3.692-.94369 5.7405-.1385 1.9704-.091 4.1186.30021 6.2784.37996 2.0976 1.1034 4.3081 2.3838 6.3709 1.2668 2.0407 3.0418 3.8724 5.4108 5.2418.0602.0348.12203.0667.18354.0991 2.6405 1.392 5.3979 2.3166 8.2022 2.8746 2.7519.54766 5.5256.73805 8.2566.68691 5.3437-.10006 10.61-1.1284 15.338-2.2808.0859-.0209.17096-.0454.25587-.0702.85131-.24862 1.7235-.51006 2.6063-.78713 2.9848-.93679 6.6033-2.2066 10.093-4.0051h1e-5c2.0616-1.0624 4.1851-2.3617 6.1984-3.9808 1.9271-1.5498 3.7769-3.4129 5.3753-5.6609.20063-.28218.3747-.58233.52255-.8954 1.9516-4.1324 4.0361-8.7296 5.768-13.516 1.6657-4.6033 3.0648-9.5345 3.7824-14.735.24797-1.3806.27941-2.7828.0422-4.1717v-1e-5c-.24871-1.4565-.77355-2.7831-1.506-3.9544v-1e-5c-.72502-1.1594-1.6132-2.1041-2.54-2.8666-.92418-.76049-1.9085-1.3584-2.868-1.8317-1.9063-.94033-3.9308-1.4946-5.7222-1.8232-1.8379-.33708-3.6254-.47203-5.1425-.48028-.0704-.00038-.14089.00011-.2113.002-1.199.0375-2.5311-.0497-4.1302-.18223-1.5704-.13011-3.4049-.30504-5.2371-.35007h-1e-5c-1.9326-.0475-4.0194.0415-6.1397.50182-2.2698.49281-4.4875 1.3926-6.544 2.8737-.14604.10518-.2935.20879-.43171.32408-.1382.11528-.26233.24633-.38072.38189-.25865.29618-.47264.54151-.61232.68764a5.7878 5.7878 90 008.368 7.9982c.0322-.0336.0694-.0715.11113-.11307.54712-.34126 1.1732-.58941 1.9465-.75311.89628-.18973 1.9792-.26435 3.3762-.22434 1.3982.04 2.776.17683 4.5562.33077 1.567.1355 3.4386.28234 5.326.23905.89399.0133 1.959.10175 3.0158.29908 1.0959.20464 2.0038.4934 2.6489.81431.30867.15355.4985.28565.60135.37139.0984.0821.0887.0976.0435.0263-.053-.0834-.0969-.19498-.1148-.29648-.0165-.0939.01-.0641-.0307.14239-.0213.10923-.0392.2191-.0542.32938-.57076 4.2012-1.7208 8.3485-3.2062 12.466-1.4734 4.084-3.2701 8.1173-5.0911 12.018-.82854 1.0973-1.7947 2.0693-2.8724 2.9453-1.2686 1.0312-2.694 1.9308-4.2211 2.7313v1e-5c-2.618 1.3724-5.5075 2.4376-8.2466 3.3323-.76161.24878-1.5276.48955-2.2966.72609-4.3606 1.1128-8.616 1.9644-12.68 2.1167-2.0701.0776-4.0273-.0299-5.867-.35403-1.8551-.32684-3.5914-.87394-5.2133-1.6775-.63966-.36401-1.1237-.82413-1.513-1.3876-.4509-.65271-.81576-1.5084-1.0554-2.5808-.24659-1.1038-.33963-2.3463-.29666-3.6476.044-1.3338.22847-2.6612.49213-3.8774 1.6139-6.0672 4.7938-11.384 8.6222-15.848 2.5064-2.9228 5.2937-5.4856 8.1402-7.6886 2.0651-1.5982 4.2342-3.064 6.463-4.3863 4.2601-2.4462 8.682-4.1122 12.779-4.7364 2.3727-.36152 4.4413-.34628 6.2266-.091 2.4848.35527 4.3127 1.1614 5.5732 1.8727a4.9527 4.9527 90 004.8677-8.6267z"/>
    <path d="m372.27 222.3c-2.1133-1.1924-5.1234-2.4836-9.0691-3.0298h-1e-5c-2.8022-.38792-5.8393-.36778-9.0973.13744-5.5604.86225-11.134 3.0443-16.214 5.9355-.0195.0111-.039.0225-.0583.0339-2.5714 1.512-5.0885 3.1929-7.5031 5.0347-3.3094 2.5244-6.6301 5.506-9.6734 8.9672-4.663 5.3035-8.8433 11.932-11.056 19.834-.0134.0479-.0247.0963-.0371.14448-.44811 1.7387-.79969 3.692-.94369 5.7405-.1385 1.9704-.091 4.1186.30021 6.2784.37996 2.0976 1.1034 4.3081 2.3838 6.3709 1.2668 2.0407 3.0418 3.8724 5.4108 5.2418.0602.0348.12203.0667.18354.0991 2.6405 1.392 5.3979 2.3166 8.2022 2.8746 2.7519.54766 5.5256.73805 8.2566.68691 5.3437-.10006 10.61-1.1284 15.338-2.2808.0859-.0209.17096-.0454.25587-.0702.85131-.24862 1.7235-.51006 2.6063-.78713 2.9848-.93679 6.6033-2.2066 10.093-4.0051h1e-5c2.0616-1.0624 4.1851-2.3617 6.1984-3.9808 1.9271-1.5498 3.7769-3.4129 5.3753-5.6609.20063-.28218.3747-.58233.52255-.8954 1.9516-4.1324 4.0361-8.7296 5.768-13.516 1.6657-4.6033 3.0648-9.5345 3.7824-14.735.24797-1.3806.27941-2.7828.0422-4.1717v-1e-5c-.24871-1.4565-.77355-2.7831-1.506-3.9544v-1e-5c-.72502-1.1594-1.6132-2.1041-2.54-2.8666-.92418-.76049-1.9085-1.3584-2.868-1.8317-1.9063-.94033-3.9308-1.4946-5.7222-1.8232-1.8379-.33708-3.6254-.47203-5.1425-.48028-.0704-.00038-.14089.00011-.2113.002-1.199.0375-2.5311-.0497-4.1302-.18223-1.5704-.13011-3.4049-.30504-5.2371-.35007h-1e-5c-1.9326-.0475-4.0194.0415-6.1397.50182-2.2698.49281-4.4875 1.3926-6.544 2.8737-.14604.10518-.2935.20879-.43171.32408-.1382.11528-.26233.24633-.38072.38189-.25865.29618-.47264.54151-.61232.68764a5.7878 5.7878 90 008.368 7.9982c.0322-.0336.0694-.0715.11113-.11307.54712-.34126 1.1732-.58941 1.9465-.75311.89628-.18973 1.9792-.26435 3.3762-.22434 1.3982.04 2.776.17683 4.5562.33077 1.567.1355 3.4386.28234 5.326.23905.89399.0133 1.959.10175 3.0158.29908 1.0959.20464 2.0038.4934 2.6489.81431.30867.15355.4985.28565.60135.37139.0984.0821.0887.0976.0435.0263-.053-.0834-.0969-.19498-.1148-.29648-.0165-.0939.01-.0641-.0307.14239-.0213.10923-.0392.2191-.0542.32938-.57076 4.2012-1.7208 8.3485-3.2062 12.466-1.4734 4.084-3.2701 8.1173-5.0911 12.018-.82854 1.0973-1.7947 2.0693-2.8724 2.9453-1.2686 1.0312-2.694 1.9308-4.2211 2.7313v1e-5c-2.618 1.3724-5.5075 2.4376-8.2466 3.3323-.76161.24878-1.5276.48955-2.2966.72609-4.3606 1.1128-8.616 1.9644-12.68 2.1167-2.0701.0776-4.0273-.0299-5.867-.35403-1.8551-.32684-3.5914-.87394-5.2133-1.6775-.63966-.36401-1.1237-.82413-1.513-1.3876-.4509-.65271-.81576-1.5084-1.0554-2.5808-.24659-1.1038-.33963-2.3463-.29666-3.6476.044-1.3338.22847-2.6612.49213-3.8774 1.6139-6.0672 4.7938-11.384 8.6222-15.848 2.5064-2.9228 5.2937-5.4856 8.1402-7.6886 2.0651-1.5982 4.2342-3.064 6.463-4.3863 4.2601-2.4462 8.682-4.1122 12.779-4.7364 2.3727-.36152 4.4413-.34628 6.2266-.091 2.4848.35527 4.3127 1.1614 5.5732 1.8727a4.9527 4.9527 90 004.8677-8.6267z"/>
    <path d="m386.72 126.38c.15934-.26675.64909-1.0985 1.0667-1.8494.16583-.29817.3551-.64577.53081-.98961.0831-.16268.17192-.34144.25859-.52626.0817-.17415.17783-.38843.27058-.62262.0814-.20556.21167-.55411.31561-.97698.0523-.21289.11994-.53192.15664-.92.0334-.35282.0652-.99637-.0948-1.7738-.0834-.40519-.23186-.91126-.50463-1.4546-.27719-.5521-.68256-1.1408-1.2591-1.6734l-1e-5-1e-5c-.5822-.53786-1.2518-.93745-1.9574-1.1959-.6897-.25265-1.3369-.34311-1.8777-.35611h-1e-5c-.53362-.0128-.99128.0487-1.3442.12184-.35455.0735-.65397.16919-.88695.25624-.45131.16862-.80272.36115-1.025.49365-.43665.26022-.78004.53364-.98158.70124-.22734.18905-.43961.38314-.62582.56053-.11887.11322-.23825.23027-.35721.34945-.20486.20522-.42716.43532-.66955.6933-18.09 17.198-43.16 37.529-67.055 59.238-.88374.6208-1.6249 1.3449-2.2321 2.107-.71541.89798-1.2574 1.8637-1.6474 2.8261-.39571.97637-.65477 1.9974-.76843 3.0185-.11543 1.0369-.0908 2.166.16173 3.3082.26522 1.1994.7945 2.5112 1.8225 3.7167.53497.62732 1.1871 1.1967 1.9563 1.6578.79151.47455 1.6429.79599 2.514.97155h1e-5c.8904.17943 1.7465.19591 2.5291.1133.80429-.0849 1.5379-.27477 2.1835-.50689.32899-.1183.64184-.24997.9377-.3895.63656-.30019 1.2387-.65751 1.807-1.0518 4.256-2.0307 8.037-4.3231 9.5266-5.0846a6.4899 6.4899 90 00-5.908-11.557c-1.8203.93052-6.2166 3.4093-9.7617 5.1594-.21269.10499-.42598.20956-.62906.33212s-.39202.26694-.57593.41673c-.16733.13628-.18977.13294-.056.0744.0456-.02.11396-.0482.20363-.0789.17276-.0593.4579-.13946.83852-.17717.37331-.037.84588-.0335 1.3804.0764h1e-5c.52562.1081 1.0589.30886 1.5617.6129.4877.2949.88726.65092 1.2003 1.0221.59813.70922.81455 1.3639.90016 1.7933.0798.40003.0532.67334.026.814-.0282.14583-.0735.23963-.11696.31161-.0415.0687-.11004.16306-.20815.26474-.10167.10537-.25701.24101-.47338.36031l.83734-.64584c23.395-21.658 48.617-42.491 67.222-60.356.10447-.10031.20762-.20213.3026-.31146.23951-.27569.41296-.46829.53787-.6035.0575-.0622.0976-.10464.12952-.13852.0515-.0545.0567-.0594.002-.0162-.0185.0147-.22883.1876-.54256.37418-.16381.0974-.46423.26446-.8711.41641-.21077.0787-.48971.16836-.82544.23791-.33405.0692-.77454.129-1.2926.11654h-1e-5c-.52524-.0126-1.1585-.10061-1.8359-.34873-.69316-.25392-1.352-.64693-1.9249-1.1762l-1e-5-1e-5c-.56722-.52404-.96483-1.1021-1.2358-1.6418-.26649-.5308-.41019-1.0224-.49021-1.4114-.15324-.7448-.1205-1.3482-.0916-1.6542.0322-.34088.09-.60587.12754-.75853.0737-.29994.1541-.50246.16892-.54017.0259-.0659.0347-.0825.0201-.0535-.0151.03-.038.0754-.0787.15163-.0866.16261-.20029.36511-.3357.59866-.35619.61431-.74302 1.2417-.95693 1.5998a5.8247 5.8247 90 0010.001 5.9741z"/>
    <path d="m315.52 121.71c1.1157.29217 2.6004.81513 4.3853 1.8737 1.3075.77549 2.6976 1.7886 4.2616 3.1553 3.0333 2.6507 5.0484 5.0261 8.6428 8.6732 4.8991 5.4781 9.3676 11.513 13.95 17.486.52865.68896 1.076 1.3995 1.6334 2.1178 4.4855 5.78 10.523 13.302 17.953 19.647 1.8887 1.7097 4.0195 3.763 6.2345 5.8251 2.218 2.0649 4.5032 4.1143 6.7864 5.847 1.3632 1.0346 2.8069 2.064 4.4853 2.3984.83918.16719 1.7177.15788 2.543-.068.82532-.22591 1.5917-.66967 2.1885-1.2828.59684-.61316 1.0198-1.3912 1.2234-2.2223.20357-.83111.1892-1.7096-.00055-2.544-.3795-1.6688-1.4474-3.0842-2.5184-4.419-1.1282-1.4062-1.9281-2.134-2.2533-2.478a5.7213 5.7213 90 00-8.3157 7.8602c.42482.44944 1.219 1.249 1.6438 1.7784l7.9213-8.1378c-1.807-1.3713-3.7494-3.0986-5.9068-5.1071-2.1313-1.9842-4.3233-4.0995-6.4189-5.9934-.0412-.0373-.083-.0739-.12532-.10999-6.4908-5.5312-11.938-12.259-16.401-18.009-.54123-.69743-1.0753-1.3907-1.5952-2.0683-4.43-5.7733-9.288-12.335-14.598-18.258-.0612-.0683-.12414-.13518-.1886-.20048-3.0659-3.1058-5.8828-6.3164-9.3551-9.3508-1.9849-1.7346-3.9374-3.1849-5.954-4.3809-2.8095-1.6663-5.3039-2.5724-7.3239-3.1013a5.7213 5.7213 90 00-2.8985 11.069z"/>
    <path d="m160.97 333.57c-1.9104-.87994-4.5039-1.6542-7.6758-1.5596-2.2705.0678-4.6478.57746-7.049 1.5981-2.0158.85685-3.9923 2.0512-5.8465 3.5496-1.6475 1.3314-3.2038 2.9086-4.5581 4.6709-2.5017 3.192-4.7947 6.7406-6.8025 10.629-3.1456 6.0923-6.1492 14.124-7.4682 23.762l.001-.01c-.66784 4.7996.25354 9.9579 2.886 14.54 1.2086 2.1036 2.7835 4.0876 4.7198 5.7974 1.8399 1.6247 4.0138 3.0073 6.489 3.9786 6.6086 2.7211 13.753 3.5853 20.881 2.9857 6.8512-.57633 13.642-2.5019 19.831-5.3601.0675-.0312.13395-.0644.20029-.0978 1.7437-.87977 3.6061-1.9092 5.438-3.1101 1.8209-1.1937 3.6614-2.5891 5.3492-4.2212 1.6884-1.6327 3.2652-3.5424 4.508-5.7685 1.2567-2.2509 2.1472-4.7834 2.4771-7.588l.00011-.00094c1.0662-8.991.5196-17.989-1.5454-26.312l.002.009c-.6795-2.7455-1.8399-5.1802-3.2961-7.2898-1.5044-2.1796-3.3131-3.9977-5.2307-5.4849-4.0391-3.1325-8.7077-4.9268-12.957-5.7378-4.5435-1.089-8.9993-1.6845-13.316-1.4883h-1e-5c-2.6166.11894-5.0381.52332-7.2774 1.1881-.42284.12552-.83646.25952-1.241.40145-2.0115.70562-3.9167 1.648-5.6949 2.8372-2.5751 1.5386-5.6585 3.7439-6.1087 4.0552a6.4901 6.4901 90 007.3831 10.676c.64431-.4456 3.502-2.4254 5.5419-3.6602.11257-.0681.22398-.1382.33245-.21268.86721-.5954 1.8168-1.0803 2.8663-1.4552.20569-.0735.41887-.14403.63992-.21116 1.1626-.35306 2.5398-.61014 4.1859-.6982h1e-5c2.7912-.14931 6.0314.2011 9.8627 1.0879.11434.0265.22897.0518.34462.0718 2.6581.45997 5.4388 1.5259 7.686 3.2263 1.0246.77528 1.906 1.6603 2.5975 2.6349.66177.93259 1.1682 1.9708 1.4714 3.1319l.002.009c1.7583 6.774 2.3158 14.25 1.5024 21.832l.00011-.00094c-.11074 1.0716-.43254 2.0733-.95966 3.0501-.53442.99036-1.2958 1.9825-2.295 2.9737-1.001.99307-2.1941 1.939-3.5313 2.8389-1.3176.88667-2.7278 1.697-4.1565 2.4428-4.9938 2.3346-10.372 3.8688-15.651 4.3509-5.4994.50233-10.762-.15572-15.409-2.0366-.0425-.0172-.0849-.0346-.12792-.0507-1.1359-.42303-2.165-1.0488-3.0653-1.8239-.93896-.80837-1.7307-1.7731-2.3525-2.826-1.345-2.2775-1.8195-4.8685-1.5294-7.1301l.001-.01c1.066-8.1651 3.5731-14.959 6.1864-20.063 1.671-3.264 3.5728-6.2147 5.6296-8.8441.0137-.0175.0273-.035.0408-.0527.79209-1.039 1.717-1.9793 2.686-2.7621 1.0815-.8737 2.1529-1.5008 3.1331-1.9148 1.1531-.48697 2.1339-.66224 2.9198-.68247 1.0714-.0276 1.9123.22899 2.5599.52726a5.7213 5.7213 90 004.7871-10.393z"/>
   </g>
  </g>
 </g>
</svg>
